# xmcd
#
# Track frame offsets:
#	153
#	11898
#	23990
#	34963
#	45443
#	56360
#	66725
#	76998
#	86503
#	95110
#	103613
#	113370
#	122965
#	133435
#	144080
#	154135
#	162650
#	171963
#	179403
#	189700
#	198425
#	209483
#
# Disc length: 2914 seconds
#
# Revision: 2
# Processed by: cddbd v1.5.2PL0 Copyright (c) Steve Scherf et al.
# Submitted via: audiograbber 1.83.01
#
DISCID=440b6016
DTITLE=Fats Domino - They Call Me The Fat Man
DYEAR=1900
DGENRE=
TTITLE0=The Fat Man
TTITLE1=Please Don't Leave Me
TTITLE2=Don't You Know
TTITLE3=All By Myself
TTITLE4=Ain't It A Shame
TTITLE5=Blue monday
TTITLE6=Poor Me
TTITLE7=I Can't Go On (Rosalie)
TTITLE8=I'm In Love Again
TTITLE9=Bo Weevil
TTITLE10=So-Long
TTITLE11=My Blue Heaven
TTITLE12=When My Dreamboat Comes Home
TTITLE13=Blueberry Hill
TTITLE14=I'm Walkin'
TTITLE15=Valley Of Tears
TTITLE16=I'm Gonna Be A Wheel Someday
TTITLE17=Whole Lotta Loving
TTITLE18=Margie (Version #2)
TTITLE19=I Hear You Knocking
TTITLE20=When The Saints Go Marching In
TTITLE21=I'm Ready
EXTD=
EXTT0=
EXTT1=
EXTT2=
EXTT3=
EXTT4=
EXTT5=
EXTT6=
EXTT7=
EXTT8=
EXTT9=
EXTT10=
EXTT11=
EXTT12=
EXTT13=
EXTT14=
EXTT15=
EXTT16=
EXTT17=
EXTT18=
EXTT19=
EXTT20=
EXTT21=
PLAYORDER=
